<svg xmlns="http://www.w3.org/2000/svg" viewBox="0 0 1391.85 679.15"><defs><style>.cls-1{fill:#575756;}.cls-2,.cls-6{fill:#14186e;}.cls-3{fill:#386abc;}.cls-4{fill:#1b3596;}.cls-5{fill:#6ab7f0;}.cls-6{fill-rule:evenodd;}</style></defs><title>gmp_vertical</title><g id="GMP_Vertical" data-name="GMP Vertical"><line class="cls-1" x1="5.84" y1="676.55" x2="1388.23" y2="678.9"/><rect class="cls-2" x="696.78" y="-13.47" width="0.5" height="1382.39" transform="translate(18.12 1373.61) rotate(-89.9)"/><line class="cls-1" x1="5.84" y1="0.25" x2="1388.23" y2="2.6"/><rect class="cls-2" x="696.78" y="-689.77" width="0.5" height="1382.39" transform="translate(694.42 698.45) rotate(-89.9)"/><path class="cls-3" d="M185.05,69.86C247.57,89.77,326,153.19,355.78,237.66c-41.57-19.2-54-23.14-107.19-39.43C243.59,181.44,218.07,100.61,185.05,69.86Z"/><path class="cls-4" d="M185.05,69.86c-22.64,58.8-26.77,114.38-20.27,220.55,26.74-29.7,83.81-92.18,83.81-92.18S226.14,109.28,185.05,69.86Z"/><path class="cls-4" d="M185.05,69.86c86.08,37.64,132.39,81,170.73,167.8,7.1-49.68,8.6-61.26,1.49-103.78C311.05,93,265.15,66.68,185.05,69.86Z"/><path class="cls-5" d="M248.59,198.23c-62.51,65.14-64.79,71-124.16,136.39,104.61-29.54,166.25-57.78,231.35-97C354.52,228.71,261.26,196.45,248.59,198.23Z"/><path class="cls-3" d="M185.05,69.86c90.94-3.13,135.12,35,172.22,64,10.84.45,19.77,1.71,27.79,4.91C352.48,80.95,273.62,48,185.05,69.86Z"/><path class="cls-3" d="M185.05,69.86c-13.68,39.74-28.68,79.78-20.27,220.55-38.14-41.88-49-52.45-77.28-88.26C109.15,146.45,132.54,107,185.05,69.86Z"/><path class="cls-4" d="M185.05,69.86c-51,39.1-72.13,68.49-97.55,132.3-23.8,9.7-43.2,19.83-71.92,41.94C41.15,160.33,92.76,99.82,185.05,69.86Z"/><path class="cls-3" d="M185.05,69.86C108.94,94.92,45.43,149.94,15.58,244.1c-5.22-21.46-6-24.09-9.75-36.45C20.39,166.55,37.11,83.33,185.05,69.86Z"/><path class="cls-4" d="M185.05,69.86c-20.77-9.17-41.79-9-57.26-6.79C105.38,73.32,72,91.54,44.9,129,102.47,83.73,154.94,73.63,185.05,69.86Z"/><path class="cls-3" d="M185.05,69.86c-16.18-5.39-29.56-9.81-57.26-6.79,20.12-8.21,26-9.38,38.46-12C176.53,56.22,178.12,58.74,185.05,69.86Z"/><path class="cls-4" d="M185.05,69.86c-5.8-9-7.44-11.78-18.8-18.78,12.81-3.3,22-3.91,40.85-4.89C194.17,54.59,192.61,56,185.05,69.86Z"/><path class="cls-5" d="M164.78,290.41c-45.69-50.18-53.27-59.79-77.28-88.25C52.43,216.41,13.92,228.46.23,271.81,37.08,292.28,100.31,292.77,164.78,290.41Z"/><path class="cls-2" d="M.23,271.81C23.95,330.17,50.74,345,96,367.43c25-28.56,47.32-54.73,68.75-77C112.9,292.31,31.27,290.38.23,271.81Z"/><path class="cls-2" d="M5.87,207.64s-7.2,38-5.65,64C6.73,257,8.21,254.53,16,243.16,15,236.26,5.87,207.64,5.87,207.64Z"/><path class="cls-5" d="M.37,271.94C1,291.35,16,344.79,26.12,358.57c7.12,9.59,39.17,12.13,69.91,8.85C58.51,347.26,26.65,337.3.37,271.94Z"/><path class="cls-2" d="M25.74,357.86c11.38,21.8,28.29,41.1,43,54,11.62-24,17.64-31.57,27.28-44.45C71.84,368.22,50.06,369.88,25.74,357.86Z"/><path class="cls-5" d="M124.43,334.62c-21.85,24.82-28,29.93-47,60,71.64,22.53,169.22,1.5,230.94-46.09C222.75,351.56,175.79,346.36,124.43,334.62Z"/><path class="cls-2" d="M124.43,334.62c74.78-19.68,183-66.19,230.51-98.77-8.33,47.62-24.69,85.43-46.53,112.72C243.18,352.75,189.67,348.27,124.43,334.62Z"/><path class="cls-2" d="M77.48,394.66c26.54,29.57,66.68,50.23,104.82,55.55,57.93-14.72,109.25-72.12,126.12-101.65C222.5,408.81,130,411.54,77.48,394.66Z"/><path class="cls-4" d="M68.75,411.88c3.56-7.24,5.41-10.92,8.72-17.22,9.5,15.95,25.34,35.09,44,52.43C100.13,436.94,86.45,428.23,68.75,411.88Z"/><path class="cls-3" d="M77.48,394.66c11.88,20.9,24.86,34.37,44,52.43,9.34,5.53,44.26,19.89,85,20.79-10.71-5.79-18.3-11-24.18-17.67C129.22,440.83,95.08,414.06,77.48,394.66Z"/><path class="cls-4" d="M270.39,395.87c-22.45,21.7-55.81,44-88.1,54.34,7.79,10.12,11.63,11,24.18,17.67a311.26,311.26,0,0,0,61-8.58C272.15,435.77,270.91,420.91,270.39,395.87Z"/><path class="cls-3" d="M267.5,459.3c3.29-25.3,3.43-36.53,2.89-63.43,25.32,12.78,54.53,17,82.18,16.71C325.83,434.92,303.6,448.65,267.5,459.3Z"/><path class="cls-2" d="M270.39,395.87c48.19-6.77,117-41.15,148.29-110.73C414,330.58,393.92,372,352.62,412.63,331.85,413.78,291.85,409.11,270.39,395.87Z"/><path class="cls-5" d="M270.39,395.87c35.9-38.55,54.69-73.09,67-100.22,36.82-4.27,69-11.55,83.5-35.79,0,8.88-1.48,16.32-2.26,25.28C394.24,343.79,330.81,388.14,270.39,395.87Z"/><path class="cls-2" d="M411.45,193.09c8.41,26.41,8.91,42.29,9.44,67.17-4,20.43-68.94,39.19-83.75,35.64C379.64,260.42,388.91,237.57,411.45,193.09Z"/><path class="cls-5" d="M337.44,295.66c23-58.84,23.71-98.65,19.83-161.77,11.86.75,21,1.09,27.79,4.91,15.92,22,20.06,37.39,26.39,54.3C401.37,213.15,385.6,259.37,337.44,295.66Z"/><path class="cls-4" d="M185.05,69.86c7.9-9.64,53.43-23.81,68.74-19.16,16.55,2.74,70.1,23.4,91.94,45C290.29,59.9,226.49,60.48,185.05,69.86Z"/><path class="cls-3" d="M185.05,69.86A46.28,46.28,0,0,1,206,46.35s32.39-.88,46,3.85C231.24,50.45,200.37,59.61,185.05,69.86Z"/><path class="cls-6" d="M224.54,625l-22.41-63.1L106,439.34l7,3.62,86.27,109.36c2.22-4.53,24.51-12,52.6-16.83l-10.69-71.06,5.51-.83,9.71,71.14c25.74-4.13,47-5.34,52.93-2L360.94,403.9l6.71-7.38L311.38,541.31s6.49,67.4,6.55,67.79c1.08,6.52-24.41,16.31-48.28,20.29C246.1,633.31,226.09,631.35,224.54,625Z"/><path class="cls-3" d="M654.24,106.77l-29.87,15.41c-7.16-9.2-18.31-14.34-34.72-14.34-25,0-42.5,17.76-42.5,41.95,0,23.12,17.88,43,42.92,43,15.36,0,27.56-4.92,35.14-12.2V166.49H581.66v-27h74.06v53.94c-1,2.14-23.56,32.11-65.43,32.11-47.34,0-77.85-36.17-77.85-75.34,0-40.45,32.61-75.34,77.64-75.34C617.63,74.88,639.94,87.51,654.24,106.77Z"/><path class="cls-3" d="M716.27,190.46h75.12V223H681.76V77.45h34.5Z"/><path class="cls-3" d="M947.05,150.22c0,41.53-33.24,75.34-73.85,75.34-41,0-73.86-33.82-73.86-75.34,0-41.31,32.82-75.34,73.86-75.34C913.81,74.88,947.05,108.91,947.05,150.22Zm-116.14,0A42.48,42.48,0,0,0,873.2,193c22.94,0,41.87-19,41.87-42.81,0-23.54-18.93-42.6-41.87-42.6A42.44,42.44,0,0,0,830.91,150.22Z"/><path class="cls-3" d="M1094.29,180.62c0,23.76-14.94,42.38-54.07,42.38H969.73V77.45h62.07c41.45,0,54.49,16.7,54.49,40,0,15-10.31,25.47-13.47,27.82C1086.72,152.37,1094.29,165,1094.29,180.62ZM1053.47,122c0-9.85-6.31-14.56-19.57-14.56h-29.67v30.39h29.67C1048.85,137.81,1053.47,133.31,1053.47,122Zm-17.25,42.6h-32v28.25h32q20.84,0,20.83-14.13C1057,168,1049.9,164.57,1036.22,164.57Z"/><path class="cls-3" d="M1212.5,200.31h-69L1134,223H1097.4l61.23-145.55h38.51L1258.58,223h-36.82Zm-12-28.68-22.3-54.37-22.72,54.37Z"/><path class="cls-3" d="M1316.39,190.46h75.12V223H1281.88V77.45h34.5Z"/><path class="cls-2" d="M754,451.72H706.41v-100l-47,100H606.54l-47.05-100v100H512.14v-196h52.54l68.41,143.79,68.13-143.79H754Z"/><path class="cls-2" d="M944,421.18H849.35l-13,30.54H786.14l84-196H923l84.29,196H956.73Zm-16.45-38.62L897,309.37l-31.18,73.19Z"/><path class="cls-2" d="M1177.32,299.57h-69.57V451.72h-47.91V299.57H990.26v-43.8h187.05Z"/><path class="cls-2" d="M1391,451.72h-47.63V375.64H1257v76.08h-47.34v-196H1257v76.08h86.3V255.77H1391Z"/><path class="cls-5" d="M616.52,535.81c0,25.37-15.61,50-47.57,50H541.77v29.15h-30.3V486.22h57.67C601.1,486.22,616.52,510.82,616.52,535.81ZM541.77,515V557.2h23.88c12.12,0,20.38-7.38,20.38-21.39,0-13.82-8.26-20.63-20.38-20.82Z"/><path class="cls-5" d="M744.49,534.49c0,18.55-8.82,34.26-22.22,41.64L748,614.94H710.51l-18.73-32h-22v32H639.62V486.22H700C725.38,486.22,744.49,506.47,744.49,534.49ZM669.74,515v39.18h25.89c10.29,0,18.55-8.89,18.55-19.68,0-10.6-8.26-19.5-18.37-19.5Z"/><path class="cls-5" d="M886.6,550.58c0,36.72-29,66.64-64.46,66.64-35.81,0-64.46-29.91-64.46-66.64,0-36.53,28.65-66.63,64.46-66.63C857.58,483.95,886.6,514,886.6,550.58Zm-101.37,0c0,21,16.53,37.86,36.91,37.86,20,0,36.55-16.84,36.55-37.86,0-20.82-16.53-37.67-36.55-37.67C801.76,512.91,785.23,529.76,785.23,550.58Z"/><path class="cls-5" d="M1000.22,559.29c0,34.64-16.34,57.93-50.13,57.93-27.91,0-50.13-23.29-50.13-56.61h30.12c0,18.36,7.71,27.82,20,27.82,12.49,0,19.83-9.46,19.83-29.15V486.22h30.3Z"/><path class="cls-5" d="M1120.31,486.22V515h-65.57v22.15h54.73V564h-54.73v22.15h65.57v28.77h-95.68V486.22Z"/><path class="cls-5" d="M1260,583.71a66.57,66.57,0,0,1-58.4,33.51c-39.12,0-67.59-29.54-67.59-67.59,0-35.78,28.47-65.68,67.59-65.68,26.63,0,47.56,12.87,58.77,32.18l-25.53,15.33c-5.87-11.74-17.45-19.5-33.23-19.5-21.86,0-37.1,16.47-37.1,37.67,0,20.44,15.24,38.43,37.1,38.43,15.43,0,26.81-8.14,32.87-19.5Z"/><path class="cls-5" d="M1391.85,515H1347.6v100h-30.49V515h-44.26V486.22h119Z"/></g></svg>