<svg xmlns="http://www.w3.org/2000/svg" viewBox="0 0 600 600"><defs><style>.cls-1{fill:#386abc;}.cls-2{fill:#1b3596;}.cls-3{fill:#6ab7f0;}.cls-4,.cls-5{fill:#14186e;}.cls-5{fill-rule:evenodd;}</style></defs><title>gmp_balloon</title><g id="balloon_standard" data-name="balloon standard"><path class="cls-1" d="M274.28,27.86C337.54,48,416.88,112.19,447,197.66c-42.07-19.43-54.67-23.42-108.47-39.9C333.51,140.77,307.69,59,274.28,27.86Z"/><path class="cls-2" d="M274.28,27.86C251.37,87.36,247.19,143.6,253.77,251c27.06-30.06,84.8-93.28,84.8-93.28S315.85,67.75,274.28,27.86Z"/><path class="cls-2" d="M274.28,27.86c87.1,38.09,134,81.92,172.76,169.8,7.19-50.28,8.7-62,1.51-105C401.78,51.24,355.32,24.65,274.28,27.86Z"/><path class="cls-3" d="M338.57,157.76c-63.25,65.92-65.56,71.84-125.64,138C318.79,265.88,381.17,237.3,447,197.66,445.76,188.6,351.39,156,338.57,157.76Z"/><path class="cls-1" d="M274.28,27.86C366.3,24.69,411,63.3,448.55,92.65c11,.45,20,1.73,28.12,5C443.7,39.08,363.9,5.71,274.28,27.86Z"/><path class="cls-1" d="M274.28,27.86c-13.84,40.22-29,80.73-20.51,223.18-38.59-42.38-49.59-53.07-78.2-89.31C197.47,105.36,221.14,65.44,274.28,27.86Z"/><path class="cls-2" d="M274.28,27.86c-51.6,39.56-73,69.3-98.71,133.87-24.09,9.82-43.71,20.06-72.78,42.44C128.66,119.41,180.88,58.18,274.28,27.86Z"/><path class="cls-1" d="M274.28,27.86c-77,25.36-141.29,81-171.49,176.32-5.28-21.72-6.09-24.38-9.87-36.88C107.66,125.7,124.57,41.49,274.28,27.86Z"/><path class="cls-2" d="M274.28,27.86c-21-9.28-42.28-9.07-57.94-6.87-22.68,10.37-56.5,28.81-83.88,66.71C190.72,41.89,243.81,31.68,274.28,27.86Z"/><path class="cls-1" d="M274.28,27.86c-16.37-5.45-29.91-9.92-57.94-6.87,20.36-8.3,26.29-9.49,38.92-12.13C265.65,14.06,267.27,16.6,274.28,27.86Z"/><path class="cls-2" d="M274.28,27.86c-5.87-9.1-7.53-11.92-19-19,13-3.34,22.28-4,41.33-5C283.51,12.4,281.93,13.81,274.28,27.86Z"/><path class="cls-3" d="M253.77,251c-46.23-50.78-53.9-60.51-78.2-89.31-35.5,14.43-74.46,26.62-88.31,70.49C124.54,252.93,188.52,253.43,253.77,251Z"/><path class="cls-4" d="M87.25,232.22c24,59.06,51.11,74,96.94,96.76,25.3-28.9,47.88-55.39,69.57-77.94C201.27,253,118.67,251,87.25,232.22Z"/><path class="cls-4" d="M93,167.29S85.67,205.69,87.24,232c6.58-14.74,8.09-17.28,16-28.79C102.23,196.25,93,167.29,93,167.29Z"/><path class="cls-3" d="M87.39,232.35C88,252,103.18,306.07,113.45,320c7.21,9.7,39.64,12.28,70.75,9C146.23,308.57,114,298.49,87.39,232.35Z"/><path class="cls-4" d="M113.06,319.29c11.52,22.06,28.63,41.59,43.53,54.66,11.76-24.27,17.85-31.95,27.6-45C159.71,329.78,137.68,331.46,113.06,319.29Z"/><path class="cls-3" d="M212.93,295.77c-22.11,25.12-28.38,30.29-47.51,60.76,72.5,22.8,171.23,1.52,233.69-46.64C312.42,312.92,264.91,307.65,212.93,295.77Z"/><path class="cls-4" d="M212.93,295.77c75.67-19.91,185.15-67,233.26-100-8.42,48.19-25,86.45-47.08,114.07C333.1,314.12,278.95,309.59,212.93,295.77Z"/><path class="cls-4" d="M165.42,356.53c26.85,29.93,67.47,50.83,106.07,56.22,58.62-14.89,110.55-73,127.62-102.86C312.17,370.85,218.59,373.61,165.42,356.53Z"/><path class="cls-2" d="M156.59,374c3.61-7.32,5.48-11.05,8.83-17.43,9.61,16.14,25.64,35.51,44.49,53.05C188.35,399.31,174.5,390.5,156.59,374Z"/><path class="cls-1" d="M165.42,356.53c12,21.15,25.15,34.78,44.49,53.05,9.45,5.59,44.79,20.13,86,21-10.84-5.86-18.52-11.18-24.47-17.88C217.78,403.25,183.23,376.16,165.42,356.53Z"/><path class="cls-2" d="M360.64,357.76c-22.71,22-56.48,44.5-89.15,55,7.88,10.24,11.77,11.14,24.47,17.88a315,315,0,0,0,61.76-8.68C362.41,398.13,361.16,383.1,360.64,357.76Z"/><path class="cls-1" d="M357.71,421.94c3.33-25.6,3.47-37,2.92-64.19,25.63,12.93,55.18,17.21,83.16,16.91C416.73,397.27,394.23,411.17,357.71,421.94Z"/><path class="cls-4" d="M360.64,357.76c48.76-6.85,118.4-41.64,150.06-112-4.78,46-25.07,87.87-66.86,129C422.82,375.88,382.35,371.15,360.64,357.76Z"/><path class="cls-3" d="M360.64,357.76c36.33-39,55.35-74,67.85-101.41,37.26-4.32,69.8-11.69,84.5-36.22,0,9-1.49,16.52-2.29,25.58C486,305.05,421.77,349.93,360.64,357.76Z"/><path class="cls-4" d="M503.38,152.56c8.52,26.73,9,42.8,9.55,68-4,20.67-69.76,39.65-84.75,36.07C471.18,220.69,480.56,197.57,503.38,152.56Z"/><path class="cls-3" d="M428.48,256.35c23.31-59.54,24-99.82,20.07-163.7,12,.76,21.25,1.1,28.12,5,16.11,22.31,20.29,37.84,26.7,54.95C493.17,172.85,477.22,219.63,428.48,256.35Z"/><path class="cls-2" d="M274.28,27.86c8-9.76,54.06-24.09,69.56-19.39,16.74,2.78,70.93,23.68,93,45.56C380.76,17.79,316.21,18.37,274.28,27.86Z"/><path class="cls-1" d="M274.28,27.86A46.83,46.83,0,0,1,295.45,4.07S328.23,3.18,342,8C321,8.22,289.78,17.49,274.28,27.86Z"/><path class="cls-5" d="M314.24,589.64l-22.68-63.85-97.26-124,7.06,3.67,87.3,110.66c2.25-4.59,24.8-12.15,53.22-17l-10.82-71.9,5.58-.84,9.83,72c26-4.18,47.56-5.4,53.56-2l52.23-130.42,6.79-7.47L402.11,504.93s6.57,68.2,6.63,68.59c1.1,6.6-24.7,16.51-48.85,20.53C336.06,598,315.81,596,314.24,589.64Z"/></g></svg>