<svg xmlns="http://www.w3.org/2000/svg" viewBox="0 0 792.28 499.95"><defs><style>.cls-1{fill:#386abc;}.cls-2{fill:#14186e;}.cls-3{fill:#6ab7f0;}</style></defs><title>gmp_text</title><g id="GMP_Text" data-name="GMP Text"><path class="cls-1" d="M127.72,28.72,100.81,42.6c-6.44-8.29-16.49-12.91-31.27-12.91-22.55,0-38.28,16-38.28,37.78,0,20.82,16.11,38.75,38.66,38.75,13.83,0,24.82-4.43,31.65-11V82.51H62.34V58.22H129V106.8c-.94,1.93-21.22,28.92-58.93,28.92C27.48,135.72,0,103.14,0,67.86,0,31.42,29.37,0,69.93,0,94.75,0,114.84,11.37,127.72,28.72Z"/><path class="cls-1" d="M183.58,104.1h67.66v29.3H152.5V2.31h31.08Z"/><path class="cls-1" d="M391.44,67.86c0,37.4-29.94,67.86-66.51,67.86-37,0-66.52-30.46-66.52-67.86C258.4,30.65,288,0,324.92,0,361.5,0,391.44,30.65,391.44,67.86Zm-104.6,0a38.26,38.26,0,0,0,38.09,38.56c20.66,0,37.71-17.16,37.71-38.56,0-21.2-17.05-38.36-37.71-38.36A38.22,38.22,0,0,0,286.83,67.86Z"/><path class="cls-1" d="M524,95.23c0,21.4-13.45,38.17-48.7,38.17H411.86V2.31h55.9c37.33,0,49.08,15,49.08,36.05,0,13.49-9.28,22.94-12.13,25.06C517.23,69.79,524,81.16,524,95.23ZM487.28,42.41c0-8.87-5.68-13.11-17.62-13.11H442.94V56.68h26.72C483.12,56.68,487.28,52.63,487.28,42.41ZM471.74,80.78h-28.8v25.45h28.8q18.77,0,18.76-12.73C490.5,83.86,484.06,80.78,471.74,80.78Z"/><path class="cls-1" d="M630.5,113H568.35l-8.53,20.43h-33L582,2.31h34.68L672,133.4H638.85ZM619.7,87.14l-20.09-49-20.46,49Z"/><path class="cls-1" d="M724.07,104.1h67.66v29.3H693V2.31h31.08Z"/><path class="cls-2" d="M219.4,348.1H176.56V258.16L134.24,348.1H86.73L44.41,258.16V348.1H1.83V171.85H49.08l61.53,129.33,61.28-129.33H219.4Z"/><path class="cls-2" d="M390.29,320.63H305.13L293.44,348.1H248.27l75.55-176.25h47.51L447.15,348.1H401.71Zm-14.79-34.74L348,220.06l-28,65.83Z"/><path class="cls-2" d="M600.11,211.25H537.54V348.1h-43.1V211.25H431.87v-39.4H600.11Z"/><path class="cls-2" d="M792.28,348.1H749.43V279.67H671.81V348.1H629.23V171.85h42.58v68.43h77.62V171.85h42.84Z"/><path class="cls-3" d="M96.11,426.89c0,22.77-14,44.86-42.69,44.86H29v26.16H1.83V382.38H53.58C82.26,382.38,96.11,404.47,96.11,426.89ZM29,408.2v37.89H50.45c10.88,0,18.29-6.62,18.29-19.2,0-12.4-7.42-18.51-18.29-18.69Z"/><path class="cls-3" d="M210.95,425.71c0,16.65-7.91,30.75-19.94,37.37l23.07,34.83H180.46L163.65,469.2H143.86v28.71h-27V382.38h54.23C193.8,382.38,210.95,400.56,210.95,425.71Zm-67.09-17.5v35.17H167.1c9.24,0,16.65-8,16.65-17.66,0-9.52-7.42-17.5-16.49-17.5Z"/><path class="cls-3" d="M338.49,440.14c0,33-26,59.81-57.85,59.81-32.14,0-57.85-26.85-57.85-59.81,0-32.79,25.71-59.8,57.85-59.8C312.45,380.35,338.49,407.36,338.49,440.14Zm-91,0c0,18.86,14.83,34,33.12,34,18,0,32.8-15.12,32.8-34,0-18.69-14.83-33.81-32.8-33.81C262.35,406.33,247.51,421.46,247.51,440.14Z"/><path class="cls-3" d="M440.47,448c0,31.09-14.67,52-45,52-25.05,0-45-20.9-45-50.8h27c0,16.48,6.92,25,18,25,11.2,0,17.8-8.49,17.8-26.16V382.38h27.19Z"/><path class="cls-3" d="M548.24,382.38V408.2H489.39v19.88h49.12v24.13H489.39v19.88h58.85v25.82H462.36V382.38Z"/><path class="cls-3" d="M673.63,469.88a59.74,59.74,0,0,1-52.41,30.07c-35.11,0-60.66-26.51-60.66-60.66,0-32.11,25.55-58.95,60.66-58.95,23.9,0,42.68,11.55,52.74,28.88L651.05,423c-5.27-10.53-15.66-17.5-29.83-17.5-19.62,0-33.3,14.78-33.3,33.81,0,18.35,13.68,34.49,33.3,34.49,13.85,0,24.06-7.3,29.5-17.5Z"/><path class="cls-3" d="M791.94,408.2H752.22v89.7H724.86V408.2H685.14V382.38h106.8Z"/></g></svg>