<svg xmlns="http://www.w3.org/2000/svg" viewBox="0 0 600 600"><defs><style>.cls-1{fill:#fff;}</style></defs><title>gmp_balloon_white</title><g id="balloon_white" data-name="balloon white"><path class="cls-1" d="M284.84,34.8C313.86,46.17,344.68,66,371,90.46c32.09,29.78,56.41,64.72,70.67,101.44C411.53,178,399.11,173.19,341,155.36,335.62,137.63,313.92,70,284.84,34.8m-10.57-6.94c33.41,31.12,59.23,112.91,64.29,129.9,53.8,16.48,66.4,20.47,108.47,39.9C416.88,112.19,337.54,48,274.28,27.86Z"/><path class="cls-1" d="M275.44,33.27c35.55,37.28,56.67,112,59.82,123.67-7.64,8.37-53,58-78.92,86.77-6-103-1.18-155.76,19.1-210.44m-1.16-5.41C251.37,87.36,247.19,143.6,253.77,251c27.06-30.06,84.8-93.28,84.8-93.28s-22.72-90-64.29-129.9Z"/><path class="cls-1" d="M287.67,30.6c33.87,0,63.27,5.8,89.87,17.59,22.29,9.88,43.37,24.09,68.23,46,6.48,39.13,5.5,52.24-.24,92.85-18.66-40.1-39.36-70.5-64.65-95.11C356.5,68.23,327.41,49,287.67,30.6m-.41-3q-6.34,0-13,.26c87.1,38.09,134,81.92,172.76,169.8,7.19-50.28,8.7-62,1.51-105C404.33,53.51,360.4,27.6,287.25,27.6Z"/><path class="cls-1" d="M339.92,160.69c7.3.09,31,6.73,56.44,15.85,27.43,9.82,41.57,16.89,46.18,20.32-34.72,20.76-65.3,36.47-98.73,50.75-35.56,15.2-74.42,28.75-121.59,42.39,18-19.92,30.38-33.93,41.43-46.46,21.31-24.15,36.76-41.65,76.28-82.85m-.15-3a8.74,8.74,0,0,0-1.2.07c-63.25,65.92-65.56,71.84-125.64,138C318.79,265.88,381.17,237.3,447,197.66c-1.24-8.82-90.66-40-107.27-40Z"/><path class="cls-1" d="M329.53,24c31.52,0,61.67,7.15,87.19,20.67,22.33,11.83,40.6,28.22,53.25,47.69a104.24,104.24,0,0,0-20.33-2.64l-4.21-3.31c-32-25.17-71.19-56-140.59-61A218.55,218.55,0,0,1,329.53,24m0-3a230.29,230.29,0,0,0-55.25,6.89q5.36-.18,10.51-.18c85,0,127.68,36.76,163.76,65,11,.45,20,1.73,28.12,5C450.68,51.47,395.59,21,329.53,21Z"/><path class="cls-1" d="M268.34,35.9c-12.81,37.59-25,80.86-18.05,206.87-5.44-6-10.29-11.24-14.71-16.06C212.71,201.8,201,189.09,179,161.22c12-30.61,23.33-52.79,36.68-71.74,14.15-20.09,31-37.29,52.68-53.58m5.94-8c-53.14,37.59-76.8,77.5-98.71,133.87,28.61,36.23,39.61,46.93,78.2,89.31-8.51-142.45,6.67-183,20.51-223.18Z"/><path class="cls-1" d="M258.3,36.72c-19.52,16.12-33.57,30.68-45.5,46.92-14.17,19.31-26,42-39.55,75.8-21.39,8.78-39.53,18-64.74,36.65,13.23-39.64,31.89-71.91,56.88-98.44a234,234,0,0,1,47.9-38.82,277.26,277.26,0,0,1,45-22.11m16-8.86c-93.4,30.32-145.62,91.55-171.49,176.32,29.07-22.38,48.69-32.62,72.78-42.44,25.72-64.57,47.11-94.31,98.71-133.87Z"/><path class="cls-1" d="M249.62,34a260.08,260.08,0,0,0-80.75,53.71c-28.89,28.43-50.94,64-65.64,105.72-3.11-12.56-4.24-16.36-7.16-26,1-2.73,1.92-5.62,2.94-8.66,7.11-21.32,16.86-50.51,41.69-75.44C154.23,69.68,171.17,58.52,191,50.1c17-7.22,36.66-12.62,58.59-16.15m24.66-6.1C124.57,41.49,107.66,125.7,92.92,167.29c3.79,12.51,4.59,15.16,9.87,36.88,30.2-95.27,94.47-151,171.49-176.32Z"/><path class="cls-1" d="M233.9,22.73A100.44,100.44,0,0,1,262,26.58a273.71,273.71,0,0,0-49.22,12.63A286.59,286.59,0,0,0,149.58,71.5c23.44-25.33,49-39.08,67.61-47.6a123.48,123.48,0,0,1,16.71-1.17m0-3A126.41,126.41,0,0,0,216.34,21c-22.68,10.37-56.5,28.81-83.88,66.71,58.26-45.8,111.35-56,141.82-59.84a99.47,99.47,0,0,0-40.38-8.13Z"/><path class="cls-1" d="M254.84,12c6.45,3.3,8.93,5.37,12.39,10.4A106.17,106.17,0,0,0,235.33,17a156.69,156.69,0,0,1,19.51-5m.42-3.15C242.63,11.49,236.7,12.68,216.34,21a156,156,0,0,1,16.9-1c17.36,0,28.35,3.64,41,7.86-7-11.25-8.63-13.8-19-19Z"/><path class="cls-1" d="M286,7.49c-5,3.83-7.72,7.18-11.92,14.55A39.4,39.4,0,0,0,262.77,10.2,165.46,165.46,0,0,1,286,7.49M296.59,3.9c-19.05,1-28.37,1.61-41.33,5,11.5,7.09,13.15,9.9,19,19,7.65-14.05,9.23-15.45,22.31-24Z"/><path class="cls-1" d="M174.68,165.33l7.18,8.53c17.6,20.93,28.48,33.86,65.34,74.41-15.33.51-28.14.75-39.91.75-55.33,0-92.44-5.81-116.39-18.25,5.66-16.33,15.61-29.38,30.37-39.83,13.92-9.87,30.66-16.53,46.84-23l6.58-2.63m.89-3.6c-35.5,14.43-74.46,26.62-88.31,70.49,28.32,15.73,72.05,19.8,120,19.8,15.19,0,30.8-.41,46.48-1-46.23-50.78-53.9-60.51-78.2-89.31Z"/><path class="cls-1" d="M93.2,238.59c31.92,13.85,92.9,16,128.19,16,8.4,0,16.83-.12,25.15-.35-15.93,16.88-32.5,35.91-50,55.94q-6.45,7.4-13.13,15C140.11,303.7,115.3,288.9,93.2,238.59m-5.95-6.37c24,59.06,51.11,74,96.94,96.76,25.3-28.9,47.88-55.39,69.57-77.94-9.9.36-20.88.59-32.38.59-49.46,0-108.65-4.16-134.14-19.41Z"/><path class="cls-1" d="M93.86,180.25c2.62,8.59,5.34,18,6.19,22.29-4.73,6.92-7.12,10.61-9.94,16.22a344.59,344.59,0,0,1,3.76-38.51m-.9-13S85.67,205.69,87.24,232c6.58-14.74,8.09-17.28,16-28.79-1-7-10.25-35.94-10.25-35.94Z"/><path class="cls-1" d="M93.59,253.39c22.1,43.53,47.7,56.73,76.78,71.74l3.36,1.73c-5,.32-10,.49-14.83.49a140.89,140.89,0,0,1-28.26-2.46c-7.53-1.6-12.77-4-14.77-6.65-7.17-9.74-17.2-41.25-22.28-64.85m-6.2-21C88,252,103.18,306.07,113.45,320c5.23,7,23.78,10.33,45.45,10.33A241,241,0,0,0,184.2,329c-38-20.4-70.2-30.48-96.8-96.62Z"/><path class="cls-1" d="M120,325.62c15.65,6,30.15,6.91,42.58,6.91,5.1,0,10.13-.16,15.41-.35-7.44,10-13.14,18.17-22.4,36.88A198.73,198.73,0,0,1,120,325.62m-7-6.33c11.52,22.06,28.63,41.59,43.53,54.66,11.76-24.27,17.85-32,27.6-45-7.36.24-14.51.56-21.56.56-16.41,0-32.36-1.74-49.57-10.25Z"/><path class="cls-1" d="M214,299.09c38.89,8.8,77.95,14.64,140.45,14.64,11.08,0,22.64-.18,35.1-.54-20.42,14.35-44.72,26.33-70.85,34.87a291.17,291.17,0,0,1-89.28,14.63c-21.34,0-41.29-2.66-59.37-7.9,14.29-22.48,21.05-30,35.11-45.77,2.63-2.94,5.57-6.23,8.84-9.94m-1.07-3.32c-22.11,25.12-28.38,30.29-47.51,60.76,19.8,6.23,41.57,9.17,64,9.17,59.72,0,124.28-20.8,169.68-55.81-16.15.57-30.94.84-44.65.84-59.89,0-99.23-5.29-141.52-15Z"/><path class="cls-1" d="M442,202.24A295.55,295.55,0,0,1,425,259.41,203.64,203.64,0,0,1,397.59,307c-15.46,1-29.95,1.44-44.26,1.44-41.56,0-81.35-4.06-127.47-13.09,71.93-20.61,167.53-61.74,216.1-93.09m4.24-6.42c-48.11,33-157.58,80-233.26,100,50.18,10.51,93.5,15.64,140.39,15.64,14.8,0,29.95-.51,45.78-1.53,22.1-27.62,38.66-65.88,47.08-114.07Z"/><path class="cls-1" d="M388.77,320.41a272.44,272.44,0,0,1-39.89,44.29c-17.85,16-45.76,36.75-77.56,45-34.73-5-70.53-22.75-96-47.24a225.16,225.16,0,0,0,53.59,6.13A285.2,285.2,0,0,0,311.76,356a311.86,311.86,0,0,0,77-35.58m10.34-10.53c-58.5,41-120,55.69-170.2,55.69-24.39,0-46.1-3.46-63.49-9.05,26.85,29.93,67.47,50.83,106.07,56.22,58.62-14.89,110.55-73,127.62-102.86Z"/><path class="cls-1" d="M165.65,362.59A249.92,249.92,0,0,0,194,398a177.1,177.1,0,0,1-33.68-24.72c2.1-4.25,3.62-7.28,5.37-10.68m-.23-6.06c-3.35,6.38-5.22,10.1-8.83,17.43,17.91,16.55,31.75,25.36,53.32,35.63C191.06,392,175,372.67,165.42,356.53Z"/><path class="cls-1" d="M182.58,376.65c18.9,15.08,47.53,31.63,87.37,38.87A71.4,71.4,0,0,0,283.83,427c-36.64-3.14-65.29-15.88-72.11-19.8-12.24-11.57-21.38-20.79-29.14-30.52m-17.16-20.12c12,21.15,25.15,34.78,44.49,53.05,9.45,5.59,44.79,20.13,86,21-10.84-5.86-18.52-11.18-24.47-17.88-53.71-9.5-88.26-36.59-106.07-56.22Z"/><path class="cls-1" d="M357.79,364.53q0,1.71.09,3.35c.49,18.72.84,32.42-2.75,51.58a310.18,310.18,0,0,1-58.49,8.13c-1.65-.87-3.16-1.65-4.51-2.34-7.4-3.81-10.87-5.6-15.59-11,27.27-9.58,57.55-28.11,81.25-49.68m2.84-6.78c-22.71,22-56.48,44.5-89.15,55,7.88,10.24,11.77,11.14,24.47,17.88a315,315,0,0,0,61.76-8.68c4.7-23.82,3.44-38.85,2.92-64.19Z"/><path class="cls-1" d="M363.73,362.57c20.42,9.39,44.5,14.44,71.74,15-21.82,17.55-42.33,30.16-74.2,40.11,2.62-21.34,2.85-33.12,2.46-55.15m-3.09-4.82c.55,27.23.4,38.59-2.92,64.19,36.52-10.78,59-24.68,86.09-47.28l-2.76,0c-27.16,0-55.62-4.42-80.4-16.92Z"/><path class="cls-1" d="M505,263.41a181.88,181.88,0,0,1-16.51,47.25c-10.81,21.2-25.84,41.2-45.93,61.11-1.67.07-3.45.11-5.31.11-20.73,0-48.69-4.33-67.31-12.66,25-4.91,50.85-15.81,73.83-31.17A196.48,196.48,0,0,0,505,263.41m5.71-17.71c-31.66,70.4-101.3,105.2-150.06,112,19.61,12.1,54.54,17.13,76.59,17.13,2.36,0,4.57-.06,6.61-.17,41.79-41.14,62.07-83,66.86-129Z"/><path class="cls-1" d="M509.43,230c-.21,2.12-.47,4.22-.73,6.38-.33,2.76-.68,5.61-1,8.63-11.75,27.94-32.56,53.41-60.21,73.65-24.16,17.69-51.89,29.9-78.95,34.85a368.89,368.89,0,0,0,61.91-94.35c15.08-1.79,33.95-4.63,49.73-10.5,12.5-4.65,22.13-10.8,29.19-18.66m3.55-9.84c-14.69,24.53-47.24,31.9-84.5,36.22C416,283.8,397,318.74,360.64,357.76c61.13-7.82,125.32-52.7,150.06-112,.79-9.06,2.28-16.59,2.29-25.58Z"/><path class="cls-1" d="M502.67,160.61c6.43,22.62,6.79,37.81,7.25,59.64-3.56,15.43-51.45,32.17-74,33.68,35.29-30.73,46.6-53.24,64.73-89.33l2-4m.7-8c-22.81,45-32.19,68.13-75.2,104a20.8,20.8,0,0,0,4.69.44c20.74,0,76.37-17.54,80.06-36.51-.53-25.17-1-41.24-9.55-68Z"/><path class="cls-1" d="M451.75,95.85c9.61.6,17.31,1.18,22.89,4.07,13.17,18.37,18,31.85,23.16,46.1.75,2.08,1.52,4.21,2.31,6.36-1.34,2.73-2.76,5.83-4.37,9.35C486,183,470.19,217.62,435.13,247.21c9-24.85,14.17-47.07,16.58-70.78,2.5-24.58,1.9-49.24,0-80.57m-3.2-3.21c3.93,63.88,3.25,104.16-20.07,163.7,48.73-36.71,64.68-83.49,74.89-103.79-6.41-17.11-10.59-32.64-26.7-54.95-6.87-3.86-16.13-4.21-28.12-5Z"/><path class="cls-1" d="M336.08,10.54a24.53,24.53,0,0,1,6.88.79l.19.06.19,0c9.27,1.54,31.2,9.12,52.22,19.38a222,222,0,0,0-71-11.44A239.13,239.13,0,0,0,289.33,22c13.34-5.86,33.54-11.45,46.75-11.45m0-3c-19.46,0-54.89,11.87-61.8,20.31a230.16,230.16,0,0,1,50.29-5.49c35.24,0,75.58,7.95,112.3,31.66-22.1-21.88-76.29-42.78-93-45.56a27.45,27.45,0,0,0-7.75-.92Z"/><path class="cls-1" d="M301.67,7c4.11,0,11.08.09,18.31.56a165.28,165.28,0,0,0-38.12,12.56A44.65,44.65,0,0,1,296.22,7.06c1,0,2.9,0,5.46,0h0m0-3c-3.8,0-6.22.07-6.22.07a46.83,46.83,0,0,0-21.18,23.78C289.78,17.49,321,8.22,342,8c-10-3.49-30.11-4-40.29-4Z"/><path class="cls-1" d="M314.24,589.64l-22.68-63.85-97.26-124,7.06,3.67,87.3,110.66c2.25-4.59,24.8-12.15,53.22-17l-10.82-71.9,5.58-.84,9.83,72c26-4.18,47.56-5.4,53.56-2l52.23-130.42,6.79-7.47L402.11,504.93s6.57,68.2,6.63,68.59c1.1,6.6-24.7,16.51-48.85,20.53C336.06,598,315.81,596,314.24,589.64Z"/></g></svg>